<svg width="62" height="19" viewBox="0 0 62 19" fill="none" xmlns="http://www.w3.org/2000/svg">
<path d="M14.0806 16.5C12.664 17.9167 11.0141 18.625 9.13091 18.625C7.96431 18.625 6.86437 18.3917 5.83109 17.925C4.81448 17.4584 3.92287 16.8167 3.15625 16C2.40629 15.1834 1.80632 14.225 1.35635 13.125C0.923038 12.0084 0.706383 10.8084 0.706383 9.52503C0.706383 8.30837 0.923038 7.1667 1.35635 6.10003C1.80632 5.0167 2.41462 4.07503 3.18124 3.27503C3.96453 2.45836 4.88114 1.8167 5.93109 1.35003C6.98103 0.866697 8.12263 0.62503 9.3559 0.62503C11.0225 0.62503 12.4474 0.97503 13.6307 1.67503C14.8306 2.37503 15.7305 3.3167 16.3305 4.50003L13.7556 6.40003C13.3057 5.5167 12.6724 4.8417 11.8558 4.37503C11.0558 3.90836 10.1809 3.67503 9.23091 3.67503C8.48095 3.67503 7.78932 3.83336 7.15602 4.15003C6.53939 4.4667 6.00609 4.90003 5.55611 5.45003C5.1228 6.00003 4.78115 6.63337 4.53116 7.35003C4.29784 8.0667 4.18119 8.82503 4.18119 9.62503C4.18119 10.4584 4.31451 11.2417 4.58116 11.975C4.84782 12.6917 5.21446 13.3167 5.6811 13.85C6.14774 14.3834 6.69771 14.8084 7.33101 15.125C7.98097 15.425 8.68093 15.575 9.43089 15.575C11.1475 15.575 12.6974 14.7667 14.0806 13.15V11.9H10.5058V9.37503H16.9305V18.5H14.0806V16.5Z" fill="#464646"/>
<path d="M25.6202 18.75C24.5703 18.75 23.6203 18.575 22.7704 18.225C21.9204 17.8584 21.1955 17.3667 20.5955 16.75C19.9955 16.1334 19.5289 15.4167 19.1956 14.6C18.8789 13.7834 18.7206 12.925 18.7206 12.025C18.7206 11.0917 18.8789 10.2167 19.1956 9.40003C19.5122 8.5667 19.9705 7.8417 20.5705 7.22503C21.1705 6.5917 21.8954 6.0917 22.7454 5.72503C23.612 5.35836 24.5786 5.17503 25.6452 5.17503C26.7118 5.17503 27.6618 5.35836 28.4951 5.72503C29.345 6.0917 30.0616 6.58337 30.6449 7.20003C31.2449 7.8167 31.6949 8.53336 31.9949 9.35003C32.3115 10.1667 32.4698 11.0167 32.4698 11.9C32.4698 12.1167 32.4615 12.325 32.4448 12.525C32.4448 12.725 32.4282 12.8917 32.3948 13.025H22.2704C22.3204 13.5417 22.4454 14 22.6454 14.4C22.8454 14.8 23.1037 15.1417 23.4203 15.425C23.737 15.7084 24.0953 15.925 24.4953 16.075C24.8953 16.225 25.3119 16.3 25.7452 16.3C26.4118 16.3 27.0368 16.1417 27.6201 15.825C28.2201 15.4917 28.6284 15.0584 28.845 14.525L31.7199 15.325C31.2366 16.325 30.4616 17.15 29.395 17.8C28.3451 18.4334 27.0868 18.75 25.6202 18.75ZM29.02 10.85C28.9367 9.8667 28.57 9.08337 27.9201 8.50003C27.2868 7.90003 26.5118 7.60003 25.5952 7.60003C25.1452 7.60003 24.7203 7.68337 24.3203 7.85003C23.937 8.00003 23.5953 8.2167 23.2953 8.50003C22.9954 8.78337 22.7454 9.12503 22.5454 9.52503C22.3621 9.92503 22.2537 10.3667 22.2204 10.85H29.02Z" fill="#464646"/>
<path d="M40.5852 18.75C39.5352 18.75 38.5853 18.575 37.7354 18.225C36.8854 17.8584 36.1604 17.3667 35.5605 16.75C34.9605 16.1334 34.4939 15.4167 34.1606 14.6C33.8439 13.7834 33.6856 12.925 33.6856 12.025C33.6856 11.0917 33.8439 10.2167 34.1606 9.40003C34.4772 8.5667 34.9355 7.8417 35.5355 7.22503C36.1354 6.5917 36.8604 6.0917 37.7104 5.72503C38.577 5.35836 39.5436 5.17503 40.6102 5.17503C41.6768 5.17503 42.6267 5.35836 43.46 5.72503C44.31 6.0917 45.0266 6.58337 45.6099 7.20003C46.2099 7.8167 46.6599 8.53336 46.9598 9.35003C47.2765 10.1667 47.4348 11.0167 47.4348 11.9C47.4348 12.1167 47.4265 12.325 47.4098 12.525C47.4098 12.725 47.3931 12.8917 47.3598 13.025H37.2354C37.2854 13.5417 37.4104 14 37.6104 14.4C37.8103 14.8 38.0687 15.1417 38.3853 15.425C38.702 15.7084 39.0603 15.925 39.4603 16.075C39.8602 16.225 40.2769 16.3 40.7102 16.3C41.3768 16.3 42.0018 16.1417 42.5851 15.825C43.185 15.4917 43.5934 15.0584 43.81 14.525L46.6848 15.325C46.2015 16.325 45.4266 17.15 44.36 17.8C43.31 18.4334 42.0518 18.75 40.5852 18.75ZM43.985 10.85C43.9017 9.8667 43.535 9.08337 42.8851 8.50003C42.2518 7.90003 41.4768 7.60003 40.5602 7.60003C40.1102 7.60003 39.6852 7.68337 39.2853 7.85003C38.902 8.00003 38.5603 8.2167 38.2603 8.50003C37.9603 8.78337 37.7104 9.12503 37.5104 9.52503C37.327 9.92503 37.2187 10.3667 37.1854 10.85H43.985Z" fill="#464646"/>
<path d="M58.425 18.5L54.6252 12.825L52.8253 14.6V18.5H49.4755V0.250031H52.8253V11.325L58.075 5.42503H61.6498L56.7751 10.975L61.9998 18.5H58.425Z" fill="#464646"/>
</svg>
