<svg width="65" height="19" viewBox="0 0 65 19" fill="none" xmlns="http://www.w3.org/2000/svg">
<path d="M7.7718 0.75003H10.8216L17.5713 18.5H14.0215L12.3715 14.075H6.17189L4.54698 18.5H0.997185L7.7718 0.75003ZM11.7466 11.65L9.29672 4.67503L6.74686 11.65H11.7466Z" fill="#2A7AE4"/>
<path d="M19.168 0.250031H22.5178V14.3C22.5178 14.7834 22.6345 15.1584 22.8678 15.425C23.1011 15.6917 23.4345 15.825 23.8678 15.825C24.0678 15.825 24.2844 15.7917 24.5177 15.725C24.7677 15.6584 25.001 15.575 25.2177 15.475L25.6677 18.025C25.2177 18.2417 24.6927 18.4084 24.0928 18.525C23.4928 18.6417 22.9512 18.7 22.4678 18.7C21.4179 18.7 20.6013 18.425 20.018 17.875C19.4514 17.3084 19.168 16.5084 19.168 15.475V0.250031Z" fill="#2A7AE4"/>
<path d="M31.1269 18.75C29.777 18.75 28.7521 18.3167 28.0521 17.45C27.3521 16.5834 27.0022 15.3 27.0022 13.6V5.40003H30.352V12.875C30.352 14.8917 31.0769 15.9 32.5268 15.9C33.1768 15.9 33.8018 15.7084 34.4017 15.325C35.0184 14.925 35.5183 14.325 35.9017 13.525V5.40003H39.2515V14.65C39.2515 15 39.3098 15.25 39.4265 15.4C39.5598 15.55 39.7681 15.6334 40.0514 15.65V18.5C39.7181 18.5667 39.4348 18.6084 39.2015 18.625C38.9848 18.6417 38.7848 18.65 38.6015 18.65C38.0015 18.65 37.5099 18.5167 37.1266 18.25C36.7599 17.9667 36.5433 17.5834 36.4766 17.1L36.4016 16.05C35.8183 16.95 35.0684 17.625 34.1518 18.075C33.2351 18.525 32.2269 18.75 31.1269 18.75Z" fill="#2A7AE4"/>
<path d="M50.3799 8.30003C49.3633 8.3167 48.4551 8.5167 47.6551 8.90003C46.8551 9.2667 46.2802 9.82503 45.9302 10.575V18.5H42.5804V5.40003H45.6552V8.20003C45.8885 7.75003 46.1635 7.35003 46.4802 7.00003C46.7968 6.63337 47.1385 6.3167 47.5051 6.05003C47.8718 5.78337 48.2384 5.58337 48.605 5.45003C48.9884 5.30003 49.355 5.22503 49.705 5.22503C49.8883 5.22503 50.0216 5.22503 50.105 5.22503C50.205 5.22503 50.2966 5.23336 50.3799 5.25003V8.30003Z" fill="#2A7AE4"/>
<path d="M55.6517 18.75C55.0184 18.75 54.4268 18.65 53.8768 18.45C53.3268 18.2334 52.8519 17.9417 52.4519 17.575C52.0519 17.1917 51.7353 16.75 51.502 16.25C51.2853 15.75 51.177 15.2 51.177 14.6C51.177 13.9834 51.3103 13.4167 51.5769 12.9C51.8603 12.3667 52.2436 11.9167 52.7269 11.55C53.2268 11.1834 53.8185 10.9 54.5018 10.7C55.1851 10.4834 55.935 10.375 56.7516 10.375C57.3349 10.375 57.9016 10.425 58.4516 10.525C59.0182 10.625 59.5182 10.7667 59.9515 10.95V10.2C59.9515 9.33337 59.7015 8.6667 59.2015 8.20003C58.7182 7.73336 57.9932 7.50003 57.0266 7.50003C56.3267 7.50003 55.6434 7.62503 54.9768 7.87503C54.3101 8.12503 53.6268 8.4917 52.9269 8.97503L51.9019 6.85003C53.5852 5.73336 55.4017 5.17503 57.3516 5.17503C59.2348 5.17503 60.6931 5.6417 61.7264 6.57503C62.7763 7.4917 63.3013 8.82503 63.3013 10.575V14.65C63.3013 15 63.3596 15.25 63.4763 15.4C63.6096 15.55 63.8179 15.6334 64.1012 15.65V18.5C63.5346 18.6167 63.043 18.675 62.6263 18.675C61.993 18.675 61.5014 18.5334 61.1514 18.25C60.8181 17.9667 60.6098 17.5917 60.5264 17.125L60.4514 16.4C59.8681 17.1667 59.1599 17.75 58.3266 18.15C57.4933 18.55 56.6017 18.75 55.6517 18.75ZM56.6017 16.3C57.1683 16.3 57.7016 16.2 58.2016 16C58.7182 15.8 59.1182 15.5334 59.4015 15.2C59.7682 14.9167 59.9515 14.6 59.9515 14.25V12.75C59.5515 12.6 59.1182 12.4834 58.6515 12.4C58.1849 12.3 57.7349 12.25 57.3016 12.25C56.435 12.25 55.7267 12.45 55.1767 12.85C54.6268 13.2334 54.3518 13.725 54.3518 14.325C54.3518 14.8917 54.5684 15.3667 55.0017 15.75C55.4351 16.1167 55.9684 16.3 56.6017 16.3Z" fill="#2A7AE4"/>
</svg>
